<svg xmlns="http://www.w3.org/2000/svg" width="181" height="48" viewBox="0 0 181 48" fill="none"><path d="M49.9829 38H44.7175V12.7606H59.1844V17.1456H49.9829V23.654H58.5456V28.0217H49.9829V38ZM68.9728 18.6993V38H63.7074V18.6993H68.9728ZM66.3487 11.1379C67.1314 11.1379 67.8046 11.322 68.3686 11.6903C68.9325 12.0471 69.2145 12.7204 69.2145 13.7101C69.2145 14.6884 68.9325 15.3674 68.3686 15.7472C67.8046 16.1155 67.1314 16.2997 66.3487 16.2997C65.5546 16.2997 64.8756 16.1155 64.3116 15.7472C63.7592 15.3674 63.483 14.6884 63.483 13.7101C63.483 12.7204 63.7592 12.0471 64.3116 11.6903C64.8756 11.322 65.5546 11.1379 66.3487 11.1379ZM80.6257 38.3453C78.4735 38.3453 76.7184 37.5051 75.3603 35.8248C74.0138 34.133 73.3405 31.6528 73.3405 28.3842C73.3405 25.0811 74.0253 22.5836 75.3949 20.8918C76.7644 19.1885 78.5541 18.3368 80.7638 18.3368C81.6846 18.3368 82.4959 18.4634 83.198 18.7166C83.9001 18.9698 84.5043 19.3093 85.0107 19.7351C85.5286 20.161 85.9659 20.6386 86.3227 21.168H86.4953C86.4263 20.7997 86.34 20.2588 86.2364 19.5452C86.1443 18.8202 86.0983 18.0778 86.0983 17.3182V11.1379H91.3809V38H87.3413L86.3227 35.4968H86.0983C85.7645 36.0262 85.3444 36.5096 84.838 36.9469C84.3431 37.3728 83.7504 37.7123 83.0599 37.9655C82.3693 38.2187 81.558 38.3453 80.6257 38.3453ZM82.4729 34.1502C83.9116 34.1502 84.9244 33.7244 85.5113 32.8727C86.1098 32.0095 86.4263 30.7148 86.4608 28.9884V28.4187C86.4608 26.5427 86.1731 25.1099 85.5976 24.1201C85.0222 23.1188 83.9518 22.6182 82.3866 22.6182C81.2242 22.6182 80.315 23.1188 79.659 24.1201C79.0029 25.1214 78.6749 26.5658 78.6749 28.4532C78.6749 30.3407 79.0029 31.7621 79.659 32.7173C80.3265 33.6726 81.2645 34.1502 82.4729 34.1502ZM114.428 28.3151C114.428 29.9264 114.209 31.3535 113.772 32.5965C113.346 33.8395 112.719 34.8926 111.89 35.7557C111.073 36.6074 110.083 37.2519 108.921 37.6893C107.77 38.1266 106.469 38.3453 105.019 38.3453C103.661 38.3453 102.412 38.1266 101.273 37.6893C100.145 37.2519 99.1611 36.6074 98.3209 35.7557C97.4922 34.8926 96.8477 33.8395 96.3874 32.5965C95.9385 31.3535 95.7141 29.9264 95.7141 28.3151C95.7141 26.1744 96.0939 24.3618 96.8535 22.8771C97.6131 21.3924 98.6949 20.2646 100.099 19.4934C101.503 18.7223 103.178 18.3368 105.123 18.3368C106.93 18.3368 108.529 18.7223 109.922 19.4934C111.326 20.2646 112.425 21.3924 113.219 22.8771C114.025 24.3618 114.428 26.1744 114.428 28.3151ZM101.083 28.3151C101.083 29.5811 101.221 30.6457 101.497 31.5089C101.774 32.3721 102.205 33.0223 102.792 33.4597C103.379 33.897 104.144 34.1157 105.088 34.1157C106.02 34.1157 106.774 33.897 107.35 33.4597C107.937 33.0223 108.363 32.3721 108.627 31.5089C108.903 30.6457 109.042 29.5811 109.042 28.3151C109.042 27.0376 108.903 25.9788 108.627 25.1386C108.363 24.287 107.937 23.6482 107.35 23.2224C106.763 22.7965 105.997 22.5836 105.054 22.5836C103.661 22.5836 102.648 23.0613 102.015 24.0165C101.394 24.9718 101.083 26.4046 101.083 28.3151Z" fill="black"></path><path d="M119.193 38V12.7606H124.544V33.5805H134.782V38H119.193ZM156.482 18.6993V38H152.442L151.734 35.5313H151.458C151.044 36.1873 150.526 36.7225 149.904 37.1368C149.283 37.5511 148.598 37.8561 147.85 38.0518C147.102 38.2474 146.325 38.3453 145.52 38.3453C144.138 38.3453 142.936 38.1036 141.911 37.6202C140.887 37.1253 140.087 36.36 139.512 35.3241C138.948 34.2883 138.666 32.9418 138.666 31.2845V18.6993H143.931V29.9724C143.931 31.3535 144.179 32.3951 144.674 33.0971C145.168 33.7992 145.957 34.1502 147.039 34.1502C148.109 34.1502 148.949 33.9085 149.559 33.4252C150.169 32.9303 150.595 32.2109 150.837 31.2672C151.09 30.312 151.216 29.1495 151.216 27.78V18.6993H156.482ZM165.96 28.1425L159.745 18.6993H165.718L169.464 24.8452L173.245 18.6993H179.218L172.934 28.1425L179.512 38H173.521L169.464 31.388L165.39 38H159.417L165.96 28.1425Z" fill="#539675"></path><path d="M16.6512 7.49121C17.0065 7.6435 17.4456 7.69934 17.9685 7.65873C24.1666 8.77043 29.2073 12.9888 30.753 19.0955C32.1541 24.649 30.7911 29.7531 26.6641 34.4081C26.6377 34.4411 26.6009 34.4636 26.5599 34.4717C26.5189 34.4798 26.4761 34.4731 26.4387 34.4526C26.4013 34.4321 26.3715 34.3991 26.3543 34.3592C26.3371 34.3192 26.3336 34.2746 26.3443 34.2329L27.9357 27.9282C27.991 27.7103 27.9776 27.4806 27.8971 27.2706C27.8167 27.0607 27.6732 26.8807 27.4864 26.7556L16.5293 19.4382C16.4743 19.4016 16.4113 19.3786 16.3457 19.371C16.2802 19.3635 16.2139 19.3716 16.1527 19.3948C16.0914 19.418 16.0369 19.4555 15.9938 19.5041C15.9506 19.5527 15.9202 19.6111 15.905 19.6742L11.3059 37.8574C11.2954 37.9037 11.2755 37.9474 11.2476 37.986C11.2196 38.0246 11.184 38.0572 11.1429 38.082C11.1018 38.1068 11.056 38.1233 11.0081 38.1305C10.9603 38.1377 10.9114 38.1354 10.8642 38.1239L10.5673 38.0477C10.4651 38.0204 10.3775 37.9549 10.3234 37.8652C10.2693 37.7755 10.2529 37.6688 10.2779 37.568L13.5902 24.4713C13.6153 24.3723 13.6206 24.2693 13.6059 24.1682C13.5912 24.0672 13.5566 23.97 13.5043 23.8823C13.452 23.7946 13.3828 23.7181 13.3009 23.6571C13.2189 23.5962 13.1258 23.552 13.0267 23.5271L9.12816 22.5372C9.10486 22.5315 9.08058 22.5311 9.05711 22.5361C9.03364 22.541 9.01158 22.5512 8.99257 22.5658C8.97355 22.5804 8.95807 22.5991 8.94728 22.6205C8.93648 22.642 8.93064 22.6655 8.93019 22.6895V36.7228C8.93004 36.7755 8.91825 36.8276 8.89565 36.8752C8.87305 36.9229 8.84021 36.9649 8.79947 36.9984C8.75873 37.0318 8.7111 37.0559 8.65998 37.0688C8.60887 37.0817 8.55553 37.0832 8.50378 37.0731C8.17382 37.0071 7.96316 36.7482 7.87179 36.2964L7.91747 26.7175C7.91735 26.6605 7.89787 26.605 7.86208 26.5595C7.82628 26.5141 7.77617 26.4813 7.7195 26.4663L3.67626 25.4459C3.63948 25.437 3.60104 25.4377 3.56462 25.448C3.52819 25.4582 3.49501 25.4777 3.46826 25.5044C3.4415 25.5312 3.42207 25.5644 3.41183 25.6008C3.40158 25.6372 3.40087 25.6756 3.40976 25.7124L5.8692 35.4208C2.27522 32.2786 0.333548 28.6262 0.0442014 24.4637C-0.26545 20.0067 1.05184 16.0853 3.99607 12.6994C7.01136 9.23744 11.2297 7.50136 16.6512 7.49121Z" fill="#539675"></path></svg>