<svg xmlns="http://www.w3.org/2000/svg" width="43" height="43" viewBox="0 0 43 43" fill="none"><g clip-path="url(#clip0_33_1426)"><path d="M39.9188 25.925L35.8875 21.8937C35.7628 21.7689 35.6147 21.6698 35.4517 21.6023C35.2887 21.5347 35.114 21.4999 34.9375 21.4999C34.761 21.4999 34.5863 21.5347 34.4233 21.6023C34.2603 21.6698 34.1122 21.7689 33.9875 21.8937L21.5 34.381V40.3125H27.4314L39.9188 27.825C40.0436 27.7003 40.1426 27.5522 40.2102 27.3892C40.2778 27.2262 40.3125 27.0514 40.3125 26.875C40.3125 26.6985 40.2778 26.5238 40.2102 26.3608C40.1426 26.1978 40.0436 26.0497 39.9188 25.925ZM26.3186 37.625H24.1875V35.4939L30.9062 28.7752L33.0373 30.9062L26.3186 37.625ZM34.9375 29.006L32.8064 26.875L34.9375 24.7439L37.0686 26.875L34.9375 29.006Z" fill="#163526"></path><path d="M24.1875 21.5H10.75V24.1875H24.1875V21.5Z" fill="#163526"></path><path d="M26.875 13.4375H10.75V16.125H26.875V13.4375Z" fill="#163526"></path><path d="M34.9375 5.375C34.9367 4.66248 34.6533 3.97938 34.1495 3.47555C33.6456 2.97173 32.9625 2.68832 32.25 2.6875H5.37501C4.66249 2.68832 3.97939 2.97173 3.47556 3.47555C2.97174 3.97938 2.68833 4.66248 2.68751 5.375V22.8438C2.6846 25.5237 3.41156 28.1538 4.79037 30.4518C6.16918 32.7498 8.14777 34.629 10.5138 35.8875L17.4688 39.596V36.55L11.7788 33.5164C9.84291 32.4865 8.22401 30.949 7.09582 29.0687C5.96763 27.1885 5.37275 25.0365 5.37501 22.8438V5.375H32.25V17.4688H34.9375V5.375Z" fill="#163526"></path></g><defs><clipPath id="clip0_33_1426"><rect width="43" height="43" fill="white"></rect></clipPath></defs></svg>