<svg xmlns="http://www.w3.org/2000/svg" width="46" height="46" viewBox="0 0 46 46" fill="none"><path d="M22.6262 21.2175C23.8912 20.0675 24.6962 18.3425 24.6962 16.5025C24.6962 12.9375 21.8212 10.0625 18.2562 10.0625C14.6912 10.0625 11.8162 12.9375 11.8162 16.5025C11.8162 18.4 12.6212 20.0675 13.8862 21.2175C12.4487 21.735 11.1837 22.54 10.0912 23.69C6.23874 27.83 6.46874 34.5 6.46874 34.7875C6.52624 35.4775 7.04374 35.995 7.73374 35.9375C8.42374 35.88 8.88374 35.3625 8.88374 34.6725C8.88374 34.615 8.65374 28.75 11.9312 25.3C13.4837 23.69 15.6112 22.8275 18.3137 22.8275C20.9587 22.8275 23.0862 23.6325 24.6387 25.2425C27.9162 28.635 27.6862 34.5575 27.6862 34.615C27.6287 35.305 28.1462 35.8225 28.8362 35.88H28.8937C29.5262 35.88 30.0437 35.3625 30.1012 34.73C30.1012 34.4425 30.3887 27.7725 26.3637 23.6325C25.3287 22.54 24.0637 21.735 22.6262 21.2175ZM14.2887 16.5025C14.2887 14.3175 16.0712 12.4775 18.3137 12.4775C20.5562 12.4775 22.3387 14.26 22.3387 16.5025C22.3387 18.6875 20.5562 20.5275 18.3137 20.5275C16.0712 20.5275 14.2887 18.6875 14.2887 16.5025ZM37.2312 19.205C36.6562 18.5725 35.9662 18.1125 35.2187 17.7675C35.8512 16.9625 36.2537 15.985 36.2537 14.8925C36.2537 12.3625 34.2412 10.35 31.7112 10.35C29.1812 10.35 27.1687 12.3625 27.1687 14.8925C27.1687 15.985 27.5712 16.9625 28.2037 17.7675C27.6287 18.055 27.0537 18.4 26.5937 18.86C26.0762 19.32 26.0762 20.0675 26.4787 20.585C26.9387 21.1025 27.6862 21.1025 28.2037 20.7C29.1237 19.895 30.2737 19.4925 31.7112 19.4925C33.3212 19.4925 34.5287 19.9525 35.4487 20.93C37.4037 23 37.2887 26.565 37.2887 26.6225C37.2312 27.3125 37.7487 27.83 38.4387 27.8875H38.4962C39.1287 27.8875 39.6462 27.37 39.7037 26.7375C39.7612 26.5075 39.8762 22.0225 37.2312 19.205ZM29.5837 14.95C29.5837 13.8 30.5612 12.8225 31.7112 12.8225C32.8612 12.8225 33.8387 13.8 33.8387 14.95C33.8387 16.1 32.8612 17.0775 31.7112 17.0775C30.5612 17.0775 29.5837 16.1 29.5837 14.95Z" fill="black"></path></svg>